<svg width="1037.94" height="772.29" xmlns="http://www.w3.org/2000/svg" xmlns:xlink="http://www.w3.org/1999/xlink">
 <defs>
  <linearGradient y2="0" x2="0.5" y1="1" x1="0.5" id="60672ce7-bfbc-4a60-a482-eb57e060a9c7">
   <stop stop-opacity="0.25" stop-color="gray" offset="0"/>
   <stop stop-opacity="0.12" stop-color="gray" offset="0.54"/>
   <stop stop-opacity="0.1" stop-color="gray" offset="1"/>
  </linearGradient>
  <linearGradient xlink:href="#60672ce7-bfbc-4a60-a482-eb57e060a9c7" y2="179.26" x2="748.44" y1="596.28" x1="748.44" id="b310ffb6-9937-4369-8bc9-4e3f67e27eb9"/>
 </defs>
 <title>time management</title>
 <g>
  <title>background</title>
  <rect fill="none" id="canvas_background" height="602" width="802" y="-1" x="-1"/>
 </g>
 <g>
  <title>Layer 1</title>
  <circle id="svg_18" fill="url(#60672ce7-bfbc-4a60-a482-eb57e060a9c7)" r="362" cy="384.41" cx="521.94"/>
  <circle id="svg_19" fill="#009A7D" r="356" cy="384.41" cx="521.94"/>
  <circle id="svg_20" fill="#dde1ec" r="283" cy="384.41" cx="521.94"/>
  <rect id="svg_21" opacity="0.3" fill="#535461" height="250" width="16" y="151.41" x="513.94"/>
  <g id="svg_22" opacity="0.1">
   <rect id="svg_23" height="20" width="226" y="378.41" x="538.94"/>
   <rect id="svg_24" transform="rotate(-62.36000061035156 -164.99000549316406,624.6300048828125) " height="160.52" width="20" y="957.94" x="351.95999"/>
   <circle id="svg_25" r="30" cy="388.41" cx="521.94"/>
  </g>
  <rect id="svg_26" fill="#535461" height="20" width="226" y="374.41" x="538.94"/>
  <rect id="svg_27" fill="#535461" transform="rotate(27.639999389648438 169.10000610351562,-261.5899963378906) " height="20" width="160.52" y="137.98" x="615.79001"/>
  <circle id="svg_28" fill="#535461" r="30" cy="384.41" cx="521.94"/>
  <g id="svg_29" opacity="0.1">
   <path id="svg_30" d="m260.92,418.41c0,-156.3 126.7,-283 283,-283a282.56,282.56 0 0 1 226.16,112.84c-48.16,-87.52 -141.16,-146.84 -248.16,-146.84c-156.3,0 -283,126.7 -283,283a281.74,281.74 0 0 0 56.87,170.16a281.71,281.71 0 0 1 -34.87,-136.16z"/>
  </g>
  <path id="svg_31" fill="url(#b310ffb6-9937-4369-8bc9-4e3f67e27eb9)" d="m783.42,176.23c-3.36,-3.23 -31.64,18 -31.64,18s-10.07,1.84 -7.67,8.75s-10.55,45.61 -10.55,45.61l-5.27,-7.37c0.51,-8.65 -1.87,-14.78 -4.19,-18.6c-0.19,-0.31 -0.38,-0.61 -0.57,-0.89l0.92,-0.32c-0.35,-4.72 -7.9,-11.91 -11.91,-15.43c0,-0.51 0,-1 0,-1.52c0.25,-5.64 2.51,-11.59 0,-16.7c-2.84,-5.83 -11.15,-8.76 -11.85,-15.16c-0.42,-3.82 2.16,-7.27 3.3,-10.95c2.72,-8.8 -2.93,-17.78 -8.33,-25.36a35.47,35.47 0 0 0 -6.61,-7.62a32.08,32.08 0 0 0 -7.94,-4.24c-7.91,-3.2 -16,-4.81 -24.16,-7c-7.83,-2.08 -15.05,-3.07 -23,-0.46a11.31,11.31 0 0 0 -5,2.87c-1.89,2.12 -2.14,5.14 -3.38,7.67c-2,4.07 -6.31,6.5 -10.12,9.11s-7.63,6.19 -7.65,10.69c0,6.39 7.3,10.41 9.74,16.36c2.28,5.54 0,11.71 -1.27,17.55a11.79,11.79 0 0 0 -0.15,5.79a12.44,12.44 0 0 0 2.24,3.9c1.51,2 3.13,3.86 4.74,5.76l-0.74,0.29c-13.42,-1.38 -22.05,15.66 -22.05,15.66c0.62,0.13 1.21,0.28 1.79,0.45l-0.57,0.74a72.75,72.75 0 0 0 -9.85,17.23l-11,14.74s-2.4,-36.86 3.36,-45.15s-5.27,-13.36 -5.27,-13.36s-24,-26.72 -27.33,-24.42s8.15,31.33 18.22,35.94c0,0 1,9.21 -1,15.2c-1.21,3.79 -7.67,43.77 -7.67,43.77s-5.75,33.63 20.62,17c17.13,-10.78 28.2,-29.34 33.84,-41q0.59,-1.23 1.11,-2.35a28.15,28.15 0 0 1 0.53,3.75l1,38.53a58.48,58.48 0 0 1 -6.06,27.52l-11.75,23.83l1.31,0.4l-0.79,1.14c-7.74,11.39 -20.9,37 6.19,50.05l36,4.61l-1.92,9.21s-14.86,28.1 -19.18,47.45a142.19,142.19 0 0 1 -12.47,34.09l1.11,0.59c-0.23,0.26 -0.47,0.53 -0.7,0.81a17.38,17.38 0 0 0 -4.16,8.72l-4.88,6.92s-1.92,28.56 1.92,35.48c2.1,3.78 9.07,6.18 15,7.58c8.8,2.09 15.9,-7 11.23,-14.49l-0.06,-0.1l-0.09,0c-1,-4.65 -4.06,-19.08 -3.06,-24.56c0.28,-1.56 0.54,-3.11 0.67,-4.69a16.58,16.58 0 0 1 1.86,-5.93c0.16,-0.31 0.33,-0.61 0.5,-0.91l0.52,0.22c1.61,0.69 3.2,1.34 4.71,1.91c-2.34,2.13 -4,6.54 -2,15.61c0,0 0.19,22.69 1.92,26.26s21.09,8.29 24.45,4.61s-2.16,-16.36 -2.16,-16.36l-0.17,0.12c-1.11,-7.35 -2.48,-20.51 0.89,-25.69c1.36,-2.09 2.68,-4.25 3.86,-6.27l0.73,-1.25l0,0c6.26,3.12 12.88,5.47 16.5,3.84c0,0 15.82,-36.86 14.86,-41.46s24.45,-56.67 24.45,-56.67s21.57,-24 -4.79,-40.54c-8.37,-5.27 -14.47,-8.81 -18.9,-11.2l-3.71,-19.4a70.92,70.92 0 0 1 1,-30.66l4,-15.26l0,0l0.33,-1.3s10.07,-20.73 9.59,-30.41a7,7 0 0 1 0.25,-2.23c0.11,0.46 0.23,0.94 0.36,1.44a185.88,185.88 0 0 0 10.42,29.36c7.65,17.26 19,15.89 25.22,13.44a8.61,8.61 0 0 0 5.31,-6.22c2.24,-10.74 8.39,-40.83 8.78,-49.14a139.79,139.79 0 0 1 2.4,-19.35c15.78,-9.23 29.2,-25.35 25.84,-28.58z"/>
  <path id="svg_32" fill="#f8bdc5" d="m666.03,471.45s-2.11,4.23 -5,9.31c-1.13,2 -2.39,4.15 -3.68,6.22c-4.57,7.31 0,30.6 0,30.6l-10,1.37l-10,-5l-1.83,-16.9l0,-12.36l11.4,-12.75l5,-5.52l14.11,5.03z"/>
  <g id="svg_33" opacity="0.1">
   <path id="svg_34" d="m666.03,471.45s-2.11,4.23 -5,9.31a123.85,123.85 0 0 1 -12.78,-7.86l-0.88,-0.62l-0.47,-0.34l5,-5.52l14.13,5.03z"/>
  </g>
  <path id="svg_35" fill="#5e52ad" d="m714.92,386.03s-24.21,51.61 -23.29,56.18s-14.16,41.11 -14.16,41.11c-3.44,1.62 -9.76,-0.71 -15.72,-3.8a123.23,123.23 0 0 1 -13,-8l-0.88,-0.62l-0.53,-0.38l39.74,-110.08l-35.16,-25.79l-2.6,-1.91l-15.72,-11.6l48,8.68s1.67,-0.21 10.5,4.73c4.24,2.37 10.13,5.92 18.27,11.26c25.09,16.47 4.55,40.22 4.55,40.22z"/>
  <g id="svg_36" opacity="0.03">
   <path id="svg_37" d="m714.92,386.03s-24.21,51.61 -23.29,56.18s-14.16,41.11 -14.16,41.11c-3.44,1.62 -9.76,-0.71 -15.72,-3.8a123.23,123.23 0 0 1 -13,-8l-0.88,-0.62l-0.53,-0.38l39.74,-110.08l-35.16,-25.79l-2.6,-1.91l-15.72,-11.6l48,8.68s1.67,-0.21 10.5,4.73c4.24,2.37 10.13,5.92 18.27,11.26c25.09,16.47 4.55,40.22 4.55,40.22z"/>
  </g>
  <path id="svg_38" fill="#5d3e53" d="m641.37,480.58s-11.88,-1.83 -7.76,17.36c0,0 0.18,22.5 1.83,26s20.1,8.22 23.29,4.57s-2.06,-16.21 -2.06,-16.21s-13.47,9.82 -17.13,-0.69s1.83,-31.03 1.83,-31.03z"/>
  <path id="svg_39" fill="#f8bdc5" d="m633.14,476.93a14.4,14.4 0 0 0 -3.11,4.32a16.92,16.92 0 0 0 -1.77,5.88c-0.12,1.56 -0.37,3.11 -0.63,4.65c-1.14,6.51 3.23,25.8 3.23,25.8l-17.36,2.74l-6.39,-6.85l-1.37,-15.07a54.61,54.61 0 0 0 2.74,-16c0,-3.93 2,-7.44 4,-10a27.5,27.5 0 0 1 4.63,-4.59s19.69,5.92 16.03,9.12z"/>
  <g id="svg_40" opacity="0.1">
   <path id="svg_41" d="m633.14,476.93a14.4,14.4 0 0 0 -3.11,4.32c-7.11,-3.21 -14.58,-7.26 -17.3,-8.76l-0.21,-0.11a27.5,27.5 0 0 1 4.63,-4.59s19.65,5.94 15.99,9.14z"/>
  </g>
  <path id="svg_42" fill="#5e52ad" d="m689.33,372.33s-11.41,21.47 -18.73,39.28c-4.8,11.7 -14.72,39.56 -21,57.3l-0.92,2.62c-2.76,7.85 -4.6,13.16 -4.6,13.16a11.89,11.89 0 0 1 -3.59,-0.53c-1.08,-0.29 -2.29,-0.68 -3.58,-1.16l-1.45,-0.55c-1.44,-0.56 -3,-1.21 -4.49,-1.89c-7.26,-3.24 -15,-7.46 -17.81,-9l-1.06,-0.59a144.48,144.48 0 0 0 11.91,-33.83c4.11,-19.18 18.27,-47 18.27,-47l1.83,-9.14l-34.26,-4.57c-25.81,-12.9 -13.27,-38.33 -5.9,-49.62a66.66,66.66 0 0 1 4.07,-5.67l27.41,6s4.32,1.38 13.92,5.63l4.41,2c5.38,2.47 12,5.65 20,9.73c26.98,13.64 15.57,27.83 15.57,27.83z"/>
  <path id="svg_43" fill="#5d3e53" d="m630.69,516.21a9.7,9.7 0 0 1 -10.7,14.36c-5.61,-1.39 -12.26,-3.77 -14.26,-7.52c-3.65,-6.85 -1.83,-35.17 -1.83,-35.17l4.8,-7.08s-2.51,31.29 3.43,34s18.5,1.27 18.5,1.27l0.06,0.14z"/>
  <path id="svg_44" fill="#85555c" d="m635.55,119a10.68,10.68 0 0 0 -4.8,2.85c-1.8,2.1 -2,5.1 -3.22,7.61c-1.9,4 -6,6.45 -9.64,9s-7.27,6.14 -7.29,10.6c0,6.34 7,10.32 9.28,16.21c2.17,5.5 0,11.61 -1.21,17.4a12.15,12.15 0 0 0 -0.14,5.74a12.47,12.47 0 0 0 2.14,3.87c4.41,6 9.89,11.32 12.84,18.15c2.24,5.19 2.86,10.92 3.45,16.55c0.85,8.1 1.7,16.35 0.16,24.35a2.46,2.46 0 0 0 0,1.47a2.28,2.28 0 0 0 1.17,1a24,24 0 0 0 32.49,-12c2,-4.53 2.77,-10 6.73,-12.94a3.37,3.37 0 0 1 1.61,-0.73a4.71,4.71 0 0 1 2.6,0.87c5.14,2.78 11.37,2.86 17.1,1.72c3.46,-0.69 7,-1.92 9.29,-4.62c4.51,-5.36 2,-13.37 2.3,-20.36c0.24,-5.59 2.39,-11.49 0,-16.55c-2.7,-5.78 -10.63,-8.68 -11.29,-15c-0.4,-3.78 2.06,-7.21 3.15,-10.85c2.59,-8.73 -2.79,-17.63 -7.93,-25.14a34.81,34.81 0 0 0 -6.29,-7.55a30.19,30.19 0 0 0 -7.56,-4.2c-7.53,-3.17 -15.21,-4.77 -23,-6.93c-7.46,-2.13 -14.33,-3.12 -21.94,-0.52z"/>
  <path id="svg_45" fill="#f8bdc5" d="m673.8,249.46l-26.5,0l0,-42.94a80,80 0 0 0 1.38,-12.5c0,-1.41 0,-2.85 0,-4.3c-0.25,-5.12 -1.31,-10.23 -4.09,-13.35c-7.31,-8.22 23.75,-6.85 23.75,-6.85a77.31,77.31 0 0 0 3.7,11.06a67.25,67.25 0 0 0 8.9,15.67a36.26,36.26 0 0 0 12.07,10.27c18.24,9.14 -19.21,42.94 -19.21,42.94z"/>
  <g id="svg_46" opacity="0.1">
   <path id="svg_47" d="m672.01,180.58a24.25,24.25 0 0 1 -23.36,9.14c-0.25,-5.12 -1.31,-10.23 -4.09,-13.35c-7.31,-8.22 23.75,-6.85 23.75,-6.85a77.31,77.31 0 0 0 3.7,11.06z"/>
  </g>
  <circle id="svg_48" fill="#f8bdc5" r="24.21" cy="164.51" cx="652.78"/>
  <path id="svg_49" fill="#f8bdc5" d="m753.27,206.07a143.91,143.91 0 0 0 -2.28,19.18c-0.37,8.23 -6.23,38.07 -8.37,48.72a8.45,8.45 0 0 1 -5.06,6.17c-5.94,2.43 -16.74,3.79 -24,-13.32a189.36,189.36 0 0 1 -9.93,-29.1a78.65,78.65 0 0 1 -2,-10.18l16,-8.68a19.71,19.71 0 0 1 3.78,4.85c2.21,3.79 4.48,9.87 4,18.44l5,7.31s12.33,-38.37 10,-45.22s7.31,-8.68 7.31,-8.68s26.95,-21 30.15,-17.81s-9.53,19.18 -24.6,28.32z"/>
  <path id="svg_50" fill="#f8bdc5" d="m622.18,224.34a108,108 0 0 1 -4.3,10.5c-5.38,11.57 -15.92,30 -32.24,40.66c-25.12,16.44 -19.64,-16.9 -19.64,-16.9s6.15,-39.64 7.31,-43.39c1.83,-5.94 0.91,-15.07 0.91,-15.07c-9.59,-4.57 -20.55,-33.34 -17.36,-35.63s26,24.21 26,24.21s10.51,5 5,13.25s-3.2,44.76 -3.2,44.76l10.57,-14.59a72.9,72.9 0 0 1 9.39,-17.08c2,-2.73 3.4,-4.38 3.4,-4.38l14.16,13.66z"/>
  <g id="svg_51" opacity="0.1">
   <path id="svg_52" d="m721.42,223.71c-3.36,1.24 -16.37,6.49 -17.81,14a78.65,78.65 0 0 1 -2,-10.18l16,-8.68a19.71,19.71 0 0 1 3.81,4.86z"/>
  </g>
  <g id="svg_53" opacity="0.1">
   <path id="svg_54" d="m622.18,224.34a108,108 0 0 1 -4.3,10.5c-0.62,-4.52 -3.17,-16.08 -13.26,-19.81c2,-2.73 3.4,-4.38 3.4,-4.38l14.16,13.69z"/>
  </g>
  <g id="svg_55" opacity="0.1">
   <path id="svg_56" d="m673.8,249.46l-26.5,0l0,-42.94a80,80 0 0 0 1.38,-12.5c5.45,5.26 4.1,13.41 4.1,13.41l14.16,32l6.86,-28.29l-2.28,-3.65l9.4,-11.18a36.26,36.26 0 0 0 12.07,10.27c18.26,9.08 -19.19,42.88 -19.19,42.88z"/>
  </g>
  <g id="svg_57" opacity="0.1">
   <path id="svg_58" d="m692.52,337.14s-20.76,-1.65 -38.77,-2.43l-1.81,-0.08c-2.56,-0.1 -5,-0.18 -7.39,-0.24c-17.48,-0.42 -37.25,-6.53 -40.61,-7.6a66.66,66.66 0 0 1 4.08,-5.65l27.41,6s4.32,1.38 13.92,5.63l-15.75,-11.63l48,8.68s1.67,-0.21 10.5,4.73l0.42,2.59z"/>
  </g>
  <path id="svg_59" fill="#ed677b" d="m673.8,212.92l-2.28,-3.65l10.14,-12.13s20.91,10.25 26.39,8c0,0 13.25,11 13.7,17.36c0,0 -19.18,6.39 -18.73,16s-9.1,30.14 -9.1,30.14l-4,16.42a73.09,73.09 0 0 0 -1,30.4l3.65,20.33s-28.78,-2.28 -48,-2.74s-41.11,-7.76 -41.11,-7.76l11.21,-23.59a60,60 0 0 0 5.78,-27.28l-1,-38.19s-0.91,-19.18 -16,-22.38c0,0 8.22,-16.9 21,-15.53c0,0 18.62,-7.77 24.15,-2.52s4.17,13.48 4.17,13.48l14.16,32l6.87,-28.36z"/>
  <g id="svg_60" opacity="0.1">
   <path id="svg_61" d="m635.31,159.52c3.67,0 6.55,-3.89 10.22,-3.69c1.9,0.1 3.53,1.31 5.1,2.4a62.25,62.25 0 0 0 19.51,9c2.71,0.72 5.58,1.26 8.3,0.6s5.27,-2.8 5.58,-5.59a9.53,9.53 0 0 0 -0.48,-3.63a44.87,44.87 0 0 0 -19.54,-25.79c-3.8,-2.33 -8.44,-4.11 -12.65,-2.65c-3.8,1.31 -6.25,4.87 -9,7.8a34.2,34.2 0 0 1 -7,5.68c-2,1.21 -5,2 -6.15,4.22c-2.17,4.14 1.24,11.61 6.11,11.65z"/>
  </g>
  <path id="svg_62" fill="#85555c" d="m635.31,158.61c3.67,0 6.55,-3.89 10.22,-3.69c1.9,0.1 3.53,1.31 5.1,2.4a62.25,62.25 0 0 0 19.51,9c2.71,0.72 5.58,1.26 8.3,0.6s5.27,-2.8 5.58,-5.59a9.53,9.53 0 0 0 -0.48,-3.63a44.87,44.87 0 0 0 -19.54,-25.79c-3.8,-2.33 -8.44,-4.11 -12.65,-2.65c-3.8,1.31 -6.25,4.87 -9,7.8a34.2,34.2 0 0 1 -7,5.68c-2,1.21 -5,2 -6.15,4.22c-2.17,4.18 1.24,11.6 6.11,11.65z"/>
  <path id="svg_63" opacity="0.05" d="m624.24,262.93s22.38,8.22 37,1.83l7.31,0.46s12.15,8.52 25,4.71"/>
  <path id="svg_64" opacity="0.05" d="m730.21,249.23s-3.65,8.68 -1.83,11.42"/>
  <path id="svg_65" opacity="0.05" d="m584.5,246.49s1.83,8.68 0,11.42"/>
 </g>
</svg>
